<svg width="24" height="24" viewBox="0 0 24 24" fill="none" xmlns="http://www.w3.org/2000/svg">
<path d="M8.35797 20.162C7.17197 19.092 6.82597 16.846 7.31997 15.218C8.17597 16.244 9.36297 16.57 10.592 16.753C12.489 17.036 14.352 16.93 16.114 16.075C16.316 15.977 16.502 15.846 16.722 15.715C16.888 16.188 16.931 16.665 16.873 17.152C16.733 18.337 16.135 19.252 15.185 19.946C14.805 20.223 14.403 20.471 14.01 20.733C12.805 21.537 12.479 22.48 12.932 23.852L12.976 24C12.3994 23.7526 11.9095 23.339 11.569 22.812C11.2147 22.2729 11.0256 21.6421 11.025 20.997C11.021 20.677 11.021 20.355 10.977 20.039C10.871 19.27 10.505 18.926 9.81597 18.906C9.10897 18.886 8.54897 19.317 8.40097 19.996C8.38897 20.049 8.37297 20.1 8.35597 20.161H8.35797V20.162ZM2.39697 15.717C2.39697 15.717 5.63697 14.142 8.88697 14.142L11.338 6.577C11.43 6.211 11.698 5.963 12 5.963C12.302 5.963 12.57 6.211 12.662 6.577L15.112 14.142C18.962 14.142 21.603 15.717 21.603 15.717L16.088 0.727C15.93 0.285 15.663 0 15.303 0H8.69697C8.33697 0 8.08197 0.285 7.91297 0.727L2.39697 15.717Z" fill="#BC52EE"/>
</svg>
