<svg width="24" height="24" viewBox="0 0 24 24" fill="none" xmlns="http://www.w3.org/2000/svg">
<g clip-path="url(#clip0_647_14)">
<path d="M6.76312 10.036C6.76312 10.332 6.79512 10.571 6.85112 10.746C6.91512 10.922 6.99512 11.114 7.10712 11.322C7.14712 11.385 7.16312 11.449 7.16312 11.505C7.16312 11.585 7.11512 11.665 7.01112 11.745L6.50812 12.08C6.44733 12.1238 6.37501 12.1489 6.30012 12.152C6.22012 12.152 6.14012 12.112 6.06112 12.04C5.9537 11.9245 5.85759 11.7989 5.77412 11.665C5.68473 11.5116 5.60198 11.3545 5.52612 11.194C4.90412 11.928 4.12112 12.295 3.17912 12.295C2.50912 12.295 1.97412 12.104 1.58312 11.721C1.19212 11.337 0.99312 10.827 0.99312 10.188C0.99312 9.51 1.23212 8.958 1.71912 8.544C2.20612 8.129 2.85212 7.92101 3.67412 7.92101C3.94612 7.92101 4.22512 7.94501 4.52012 7.98501C4.81612 8.02501 5.12012 8.08901 5.43812 8.16101V7.57801C5.43812 6.97101 5.31112 6.54801 5.06312 6.30101C4.80812 6.05301 4.37712 5.93401 3.76312 5.93401C3.48312 5.93401 3.19512 5.96501 2.90012 6.03701C2.60512 6.10901 2.31712 6.19701 2.03812 6.30901C1.94715 6.34974 1.85362 6.38448 1.75812 6.41301C1.71699 6.42626 1.67429 6.434 1.63112 6.43601C1.51912 6.43601 1.46312 6.35601 1.46312 6.18901V5.79801C1.46312 5.67001 1.47912 5.57401 1.51912 5.51801C1.57953 5.4454 1.6563 5.38817 1.74312 5.35101C2.02212 5.20701 2.35712 5.08701 2.74812 4.99101C3.15514 4.8868 3.57399 4.83604 3.99412 4.84001C4.94412 4.84001 5.63812 5.05601 6.08512 5.48701C6.52412 5.91701 6.74712 6.57201 6.74712 7.45001V10.036H6.76312ZM3.52312 11.25C3.78612 11.25 4.05712 11.202 4.34512 11.106C4.63212 11.01 4.88812 10.835 5.10312 10.596C5.23112 10.444 5.32712 10.276 5.37512 10.084C5.42212 9.893 5.45512 9.66101 5.45512 9.39001V9.05501C5.21286 8.99595 4.96747 8.95054 4.72012 8.919C4.47136 8.8874 4.22088 8.87137 3.97012 8.87101C3.43512 8.87101 3.04412 8.97501 2.78012 9.19101C2.51712 9.40601 2.39012 9.70901 2.39012 10.108C2.39012 10.483 2.48512 10.763 2.68512 10.954C2.87612 11.154 3.15512 11.25 3.52312 11.25ZM9.93312 12.112C9.78912 12.112 9.69312 12.088 9.62912 12.032C9.56512 11.984 9.50912 11.872 9.46112 11.721L7.58612 5.55001C7.54965 5.44653 7.52548 5.33913 7.51412 5.23001C7.51412 5.10201 7.57812 5.03001 7.70512 5.03001H8.48812C8.63912 5.03001 8.74312 5.05501 8.79812 5.11001C8.86312 5.15801 8.91112 5.27001 8.95812 5.42201L10.3001 10.706L11.5451 5.42201C11.5851 5.26201 11.6331 5.15801 11.6961 5.11001C11.7921 5.05117 11.9038 5.02324 12.0161 5.03001H12.6541C12.8061 5.03001 12.9101 5.05501 12.9741 5.11001C13.0371 5.15801 13.0941 5.27001 13.1251 5.42201L14.3861 10.77L15.7671 5.42201C15.8151 5.26201 15.8711 5.15801 15.9271 5.11001C16.0198 5.0512 16.1286 5.02319 16.2381 5.03001H16.9811C17.1081 5.03001 17.1811 5.09501 17.1811 5.23001C17.1811 5.27001 17.1721 5.31001 17.1641 5.35801C17.1516 5.42624 17.1328 5.49319 17.1081 5.55801L15.1851 11.728C15.1371 11.888 15.0811 11.991 15.0171 12.039C14.927 12.0968 14.821 12.1248 14.7141 12.119H14.0271C13.8761 12.119 13.7721 12.095 13.7071 12.039C13.6441 11.983 13.5881 11.879 13.5571 11.719L12.3191 6.57101L11.0891 11.711C11.0491 11.871 11.0021 11.975 10.9391 12.031C10.8741 12.087 10.7621 12.111 10.6191 12.111L9.93312 12.112ZM20.1891 12.327C19.7741 12.327 19.3591 12.279 18.9601 12.184C18.5611 12.088 18.2501 11.984 18.0421 11.864C17.9141 11.793 17.8271 11.713 17.7951 11.641C17.7639 11.5704 17.7476 11.4942 17.7471 11.417V11.01C17.7471 10.843 17.8111 10.763 17.9301 10.763C17.9781 10.763 18.0261 10.771 18.0741 10.787C18.1221 10.803 18.1941 10.835 18.2741 10.867C18.5451 10.987 18.8401 11.082 19.1521 11.146C19.4711 11.21 19.7821 11.242 20.1021 11.242C20.6041 11.242 20.9961 11.154 21.2671 10.978C21.397 10.8995 21.5039 10.788 21.5767 10.6549C21.6496 10.5218 21.686 10.3717 21.6821 10.22C21.685 10.1172 21.6675 10.0149 21.6306 9.91896C21.5937 9.823 21.5382 9.73532 21.4671 9.66101C21.3231 9.51001 21.0511 9.37401 20.6601 9.24601L19.5031 8.886C18.9201 8.703 18.4891 8.43201 18.2261 8.07301C17.9687 7.74169 17.8281 7.33456 17.8261 6.91501C17.8261 6.58001 17.8991 6.28501 18.0421 6.02901C18.1861 5.77401 18.3771 5.55001 18.6171 5.37501C18.8571 5.19101 19.1271 5.05501 19.4471 4.96001C19.7671 4.86401 20.1021 4.82401 20.4531 4.82401C20.6281 4.82401 20.8121 4.83201 20.9881 4.85601C21.1711 4.88001 21.3381 4.91201 21.5061 4.94401C21.6661 4.98401 21.8181 5.02401 21.9611 5.07101C22.1051 5.11901 22.2171 5.16701 22.2971 5.21501C22.3914 5.26245 22.4735 5.33087 22.5371 5.41501C22.5887 5.49266 22.6136 5.58496 22.6081 5.67801V6.05301C22.6081 6.22101 22.5441 6.30901 22.4241 6.30901C22.3179 6.29682 22.215 6.26423 22.1211 6.21301C21.6389 5.99998 21.1162 5.89388 20.5891 5.90201C20.1341 5.90201 19.7741 5.97301 19.5271 6.12501C19.2791 6.27701 19.1521 6.50801 19.1521 6.83501C19.1521 7.05901 19.2321 7.25101 19.3921 7.40201C19.5511 7.55401 19.8461 7.70601 20.2691 7.84201L21.4031 8.20001C21.9771 8.38401 22.3931 8.64001 22.6401 8.96701C22.8871 9.29401 23.0071 9.669 23.0071 10.084C23.0071 10.427 22.9351 10.739 22.8001 11.01C22.6561 11.282 22.4641 11.521 22.2171 11.713C21.9691 11.913 21.6741 12.056 21.3311 12.16C20.9711 12.271 20.5971 12.327 20.1891 12.327ZM21.6981 16.207C19.0721 18.147 15.2561 19.176 11.9761 19.176C7.37812 19.176 3.23612 17.476 0.10612 14.65C-0.14088 14.427 0.0821201 14.123 0.37812 14.299C3.76212 16.262 7.93712 17.452 12.2551 17.452C15.1691 17.452 18.3691 16.845 21.3151 15.6C21.7541 15.4 22.1291 15.887 21.6981 16.207ZM22.7921 14.961C22.4561 14.531 20.5721 14.754 19.7181 14.858C19.4631 14.89 19.4231 14.666 19.6551 14.498C21.1551 13.445 23.6221 13.748 23.9091 14.099C24.1961 14.459 23.8291 16.925 22.4241 18.106C22.2091 18.29 22.0011 18.194 22.0971 17.955C22.4171 17.165 23.1271 15.385 22.7921 14.961Z" fill="white"/>
</g>
<defs>
<clipPath id="clip0_647_14">
<rect width="24" height="24" fill="white"/>
</clipPath>
</defs>
</svg>
