<svg width="24" height="24" viewBox="0 0 24 24" fill="none" xmlns="http://www.w3.org/2000/svg">
<g clip-path="url(#clip0_645_28)">
<path d="M12.002 0C11.4349 0 10.8909 0.225306 10.4899 0.626352C10.0888 1.0274 9.86353 1.57133 9.86353 2.1385C9.86353 2.70567 10.0888 3.2496 10.4899 3.65065C10.8909 4.05169 11.4349 4.277 12.002 4.277C12.5692 4.277 13.1131 4.05169 13.5142 3.65065C13.9152 3.2496 14.1405 2.70567 14.1405 2.1385C14.1405 1.57133 13.9152 1.0274 13.5142 0.626352C13.1131 0.225306 12.5692 0 12.002 0ZM20.542 4.931C19.9749 4.931 19.4309 5.15631 19.0299 5.55735C18.6288 5.9584 18.4035 6.50233 18.4035 7.0695C18.4035 7.63667 18.6288 8.1806 19.0299 8.58165C19.4309 8.98269 19.9749 9.208 20.542 9.208C21.1092 9.208 21.6531 8.98269 22.0542 8.58165C22.4552 8.1806 22.6805 7.63667 22.6805 7.0695C22.6805 6.50233 22.4552 5.9584 22.0542 5.55735C21.6531 5.15631 21.1092 4.931 20.542 4.931ZM20.542 14.793C19.9749 14.793 19.4309 15.0183 19.0299 15.4194C18.6288 15.8204 18.4035 16.3643 18.4035 16.9315C18.4035 17.4987 18.6288 18.0426 19.0299 18.4436C19.4309 18.8447 19.9749 19.07 20.542 19.07C21.1092 19.07 21.6531 18.8447 22.0542 18.4436C22.4552 18.0426 22.6805 17.4987 22.6805 16.9315C22.6805 16.3643 22.4552 15.8204 22.0542 15.4194C21.6531 15.0183 21.1092 14.793 20.542 14.793ZM12.002 19.724C11.435 19.724 10.8912 19.9493 10.4902 20.3502C10.0893 20.7512 9.86403 21.295 9.86403 21.862C9.86403 22.429 10.0893 22.9728 10.4902 23.3738C10.8912 23.7747 11.435 24 12.002 24C12.5691 24 13.1129 23.7747 13.5138 23.3738C13.9148 22.9728 14.14 22.429 14.14 21.862C14.14 21.295 13.9148 20.7512 13.5138 20.3502C13.1129 19.9493 12.5691 19.724 12.002 19.724ZM3.46003 14.794C3.17927 14.794 2.90125 14.8493 2.64186 14.9567C2.38246 15.0642 2.14677 15.2217 1.94824 15.4202C1.74971 15.6187 1.59222 15.8544 1.48478 16.1138C1.37733 16.3732 1.32203 16.6512 1.32203 16.932C1.32203 17.2128 1.37733 17.4908 1.48478 17.7502C1.59222 18.0096 1.74971 18.2453 1.94824 18.4438C2.14677 18.6423 2.38246 18.7998 2.64186 18.9073C2.90125 19.0147 3.17927 19.07 3.46003 19.07C4.0272 19.07 4.57113 18.8447 4.97218 18.4436C5.37323 18.0426 5.59853 17.4987 5.59853 16.9315C5.59853 16.3643 5.37323 15.8204 4.97218 15.4194C4.57113 15.0183 4.0272 14.794 3.46003 14.794ZM3.46003 4.931C2.89287 4.931 2.34893 5.15631 1.94789 5.55735C1.54684 5.9584 1.32153 6.50233 1.32153 7.0695C1.32153 7.63667 1.54684 8.1806 1.94789 8.58165C2.34893 8.98269 2.89287 9.208 3.46003 9.208C4.0272 9.208 4.57113 8.98269 4.97218 8.58165C5.37323 8.1806 5.59853 7.63667 5.59853 7.0695C5.59853 6.50233 5.37323 5.9584 4.97218 5.55735C4.57113 5.15631 4.0272 4.931 3.46003 4.931ZM12.002 1.553L2.95303 6.777V17.225L12.002 22.449L21.049 17.225V6.777L12.002 1.553ZM12.002 3.154L19.662 16.424H4.34003L12.002 3.154ZM10.615 3.525L3.97003 15.037V7.363L10.615 3.525ZM13.389 3.525L20.035 7.363V15.037L13.389 3.525ZM5.35503 17.44H18.648L12.002 21.276L5.35503 17.44Z" fill="#E10098"/>
</g>
<defs>
<clipPath id="clip0_645_28">
<rect width="24" height="24" fill="white"/>
</clipPath>
</defs>
</svg>
