<svg width="24" height="24" viewBox="0 0 24 24" fill="none" xmlns="http://www.w3.org/2000/svg">
<g clip-path="url(#clip0_645_4)">
<path d="M22.2511 11.82C22.2499 11.1316 22.0208 10.463 21.5997 9.91854C21.1786 9.37403 20.589 8.98424 19.9231 8.81L22.9111 0H8.1041L11.1001 8.838C10.4533 9.02653 9.88506 9.4196 9.48049 9.9583C9.07593 10.497 8.85685 11.1523 8.8561 11.826C8.8561 12.869 9.3761 13.793 10.1691 14.362C9.85009 14.8117 9.48695 15.2285 9.0851 15.606C8.34589 16.31 7.48085 16.8688 6.5351 17.253C5.7011 16.69 5.3401 15.697 5.6661 14.807C6.37556 14.5866 6.9827 14.1196 7.37766 13.4904C7.77261 12.8612 7.92928 12.1113 7.81931 11.3766C7.70935 10.6419 7.34001 9.97083 6.77814 9.48482C6.21627 8.99881 5.49899 8.72999 4.7561 8.727C3.9308 8.72806 3.13961 9.05637 2.55604 9.63995C1.97247 10.2235 1.64415 11.0147 1.6431 11.84C1.6431 12.688 1.9901 13.466 2.5461 14.022C2.4981 14.119 2.4491 14.217 2.4001 14.321C1.9351 15.28 1.4071 16.364 1.2051 17.58C0.802096 20.012 1.4621 21.964 3.0541 23.069C3.91573 23.6767 4.94473 24.002 5.9991 24C7.8261 24 9.6811 23.083 11.4741 22.193C12.7531 21.561 14.0731 20.901 15.3721 20.581C15.8521 20.463 16.3521 20.394 16.8801 20.317C17.9501 20.164 19.0551 20.005 20.0481 19.427C20.6152 19.102 21.1043 18.657 21.4812 18.123C21.8582 17.5891 22.1138 16.9792 22.2301 16.336C22.4041 15.342 22.2301 14.342 21.7861 13.466C22.0841 12.986 22.2511 12.425 22.2511 11.82ZM20.8961 11.82C20.8961 12.785 20.1111 13.57 19.1461 13.57C18.7827 13.569 18.4286 13.4551 18.1328 13.244C17.837 13.0329 17.6141 12.7351 17.4949 12.3918C17.3757 12.0485 17.3662 11.6767 17.4677 11.3277C17.5691 10.9787 17.7765 10.6699 18.0611 10.444L18.0681 10.437C18.1241 10.395 18.1861 10.353 18.2481 10.312C18.2481 10.312 18.2561 10.312 18.2561 10.305C18.2841 10.291 18.3111 10.27 18.3391 10.255C18.3461 10.255 18.3531 10.249 18.3601 10.249C18.3881 10.235 18.4231 10.221 18.4571 10.207C18.4921 10.193 18.5271 10.18 18.5551 10.166C18.5621 10.166 18.5681 10.159 18.5751 10.159C18.6031 10.152 18.6311 10.138 18.6591 10.131C18.6661 10.131 18.6791 10.124 18.6871 10.124C18.7211 10.117 18.7491 10.11 18.7841 10.104H18.7911L18.8951 10.082C18.9021 10.082 18.9151 10.082 18.9231 10.075C18.9511 10.075 18.9781 10.068 19.0061 10.068H19.0411C19.0761 10.068 19.1111 10.061 19.1521 10.061H19.2421C19.2701 10.061 19.2921 10.061 19.3191 10.068H19.3331C19.3881 10.075 19.4441 10.082 19.5001 10.096C19.8946 10.1805 20.2483 10.3976 20.5023 10.7111C20.7562 11.0245 20.8952 11.4165 20.8961 11.82ZM10.0431 1.39H20.9731L18.4641 8.79C18.3601 8.81 18.2561 8.845 18.1521 8.88L15.5121 3.495L12.8641 8.845C12.7601 8.811 12.6481 8.79 12.5371 8.769L10.0431 1.39ZM15.0111 11.215C14.8833 10.5736 14.5548 9.98943 14.0731 9.547L15.5111 6.643L16.9631 9.61C16.5331 10.04 16.2201 10.59 16.0951 11.215H15.0111ZM11.5301 10.117C11.5641 10.11 11.5921 10.103 11.6271 10.097H11.6471C11.6761 10.089 11.7031 10.089 11.7311 10.082H11.7591C11.7871 10.082 11.8081 10.075 11.8351 10.075H12.1061C12.1341 10.075 12.1551 10.082 12.1761 10.082C12.1901 10.082 12.1961 10.082 12.2111 10.089C12.2381 10.096 12.2591 10.096 12.2871 10.103C12.2941 10.103 12.3011 10.103 12.3151 10.11L12.4121 10.13H12.4191C12.4471 10.138 12.4751 10.145 12.5021 10.159C12.5091 10.159 12.5161 10.166 12.5301 10.166C12.5511 10.173 12.5791 10.18 12.6001 10.193C12.6071 10.193 12.6141 10.2 12.6201 10.2C12.6481 10.214 12.6761 10.221 12.7041 10.235H12.7111C12.7432 10.2471 12.7735 10.2636 12.8011 10.284H12.8081C12.8361 10.298 12.8641 10.318 12.8921 10.332C12.8991 10.332 12.8991 10.339 12.9051 10.339C12.9331 10.353 12.9551 10.374 12.9821 10.388L12.9891 10.395C13.0721 10.457 13.1491 10.527 13.2251 10.596L13.2321 10.603C13.5418 10.9292 13.7137 11.3622 13.7121 11.812C13.6967 12.2662 13.5055 12.6966 13.1788 13.0124C12.8521 13.3283 12.4155 13.5048 11.9611 13.5048C11.5067 13.5048 11.07 13.3283 10.7433 13.0124C10.4166 12.6966 10.2254 12.2662 10.2101 11.812C10.209 11.4226 10.3384 11.044 10.5777 10.7368C10.817 10.4295 11.1523 10.2113 11.5301 10.117ZM4.6921 10.068C5.6581 10.068 6.4431 10.854 6.4431 11.819C6.4431 12.784 5.6581 13.57 4.6931 13.57C3.7281 13.57 2.9411 12.785 2.9411 11.82C2.9411 10.855 3.7271 10.068 4.6921 10.068ZM20.8551 16.093C20.7761 16.5376 20.5999 16.9592 20.3393 17.3279C20.0786 17.6966 19.7398 18.0032 19.3471 18.226C18.5891 18.664 17.6581 18.803 16.6781 18.942C16.1271 19.0126 15.5798 19.1097 15.0381 19.233C13.5931 19.588 12.2041 20.283 10.8561 20.95C9.1321 21.804 7.5061 22.61 5.9991 22.61C5.22632 22.6148 4.47201 22.3739 3.8451 21.922C2.3161 20.866 2.3921 18.886 2.5731 17.802C2.7401 16.787 3.2051 15.836 3.6501 14.925C3.6781 14.87 3.6991 14.821 3.7271 14.765C3.8791 14.821 4.0391 14.863 4.2061 14.891C3.9421 16.364 4.6921 17.885 6.1521 18.636L6.4161 18.775L6.7001 18.671C7.9161 18.24 9.0421 17.538 10.0361 16.6C10.585 16.0882 11.0702 15.512 11.4811 14.884C11.6411 14.911 11.8011 14.918 11.9611 14.918C12.649 14.9164 13.317 14.6873 13.8611 14.2664C14.4052 13.8455 14.7948 13.2564 14.9691 12.591H16.1361C16.3093 13.2574 16.6988 13.8475 17.2436 14.2687C17.7884 14.6898 18.4575 14.9182 19.1461 14.918C19.7221 14.918 20.2561 14.758 20.7161 14.488C20.8961 15.008 20.9521 15.551 20.8551 16.093Z" fill="#C21325"/>
</g>
<defs>
<clipPath id="clip0_645_4">
<rect width="24" height="24" fill="white"/>
</clipPath>
</defs>
</svg>
