<svg width="24" height="24" viewBox="0 0 24 24" fill="none" xmlns="http://www.w3.org/2000/svg">
<g clip-path="url(#clip0_645_35)">
<path d="M11.5723 0C11.396 0 11.2625 0.0013 11.2139 0.0067C11.1623 0.012 10.998 0.0277 10.8503 0.0395C7.4415 0.3468 4.2486 2.1858 2.2263 5.0123C1.1002 6.584 0.38 8.3666 0.108 10.255C0.0118 10.914 0 11.1087 0 12.0024C0 12.8961 0.012 13.0908 0.108 13.75C0.76 18.256 3.9671 22.0419 8.3167 23.4445C9.0956 23.6956 9.9167 23.8668 10.8504 23.97C11.214 24.01 12.7858 24.01 13.1494 23.97C14.7611 23.7917 16.1266 23.393 17.4731 22.7057C17.6796 22.6001 17.7195 22.572 17.6914 22.5484C17.6726 22.5345 16.7927 21.3546 15.7371 19.9284L13.8181 17.3364L11.4134 13.7781C10.0903 11.8217 9.0017 10.2221 8.9923 10.2221C8.9829 10.2195 8.9736 11.8008 8.9688 13.7311C8.9621 17.1113 8.9595 17.2473 8.9172 17.3271C8.8562 17.4421 8.8092 17.4889 8.7108 17.5405C8.6358 17.5779 8.57 17.585 8.2158 17.585H7.8098L7.702 17.517C7.63515 17.4751 7.58084 17.416 7.5448 17.3458L7.4955 17.2402L7.5008 12.5372L7.5075 7.8318L7.5801 7.7403C7.6177 7.691 7.6975 7.6278 7.7537 7.5973C7.8499 7.5503 7.8875 7.5456 8.2933 7.5456C8.772 7.5456 8.8517 7.5643 8.976 7.7003C9.0113 7.738 10.3133 9.699 11.871 12.0611C13.4482 14.4519 15.0263 16.8421 16.6054 19.2317L18.5056 22.1099L18.6016 22.0466C19.4534 21.493 20.3541 20.7048 21.0673 19.8839C22.5852 18.141 23.5636 16.0159 23.892 13.7499C23.9881 13.0908 23.9998 12.8959 23.9998 12.0024C23.9998 11.1087 23.9878 10.914 23.892 10.2548C23.2398 5.7488 20.0328 1.9629 15.6833 0.5603C14.9161 0.3116 14.0997 0.1403 13.1848 0.0371C13.0158 0.0195 12.1011 0.0004 11.5723 0ZM15.6408 7.217C15.9881 7.217 16.049 7.2223 16.1265 7.264C16.2392 7.3202 16.3305 7.4282 16.3635 7.5407C16.3821 7.6017 16.3869 8.906 16.3821 11.8451L16.3754 16.0626L15.6318 14.9226L14.8857 13.7826V10.7166C14.8857 8.7346 14.895 7.6203 14.9091 7.5664C14.9466 7.4351 15.0287 7.3318 15.1414 7.2709C15.2375 7.2215 15.2724 7.217 15.6408 7.217Z" fill="white"/>
</g>
<defs>
<clipPath id="clip0_645_35">
<rect width="24" height="24" fill="white"/>
</clipPath>
</defs>
</svg>
