<svg width="24" height="24" viewBox="0 0 24 24" fill="none" xmlns="http://www.w3.org/2000/svg">
<path d="M6.92963 13.6875C7.09363 13.5937 7.30463 13.6523 7.39833 13.8203L7.46083 13.9258C7.94133 14.7773 8.44133 15.5859 8.96083 16.3516C9.57413 17.2539 10.2655 18.168 11.0351 19.0937C11.0937 19.1633 11.1225 19.2533 11.1151 19.3439C11.1078 19.4346 11.065 19.5188 10.996 19.5781L10.9218 19.6445C8.37883 21.8672 6.73043 22.3085 5.96863 20.9765C5.22263 19.6719 5.49213 17.3047 6.77723 13.8672C6.80527 13.7912 6.85924 13.7276 6.92963 13.6875ZM17.7499 16.3008C17.9335 16.2695 18.1093 16.3868 18.1444 16.5703L18.164 16.6719C18.7929 19.957 18.3515 21.6016 16.8397 21.6016C15.3593 21.6016 13.4804 20.1992 11.1913 17.3984C11.1399 17.3359 11.1135 17.2566 11.1171 17.1758C11.1171 16.9883 11.2733 16.8359 11.4608 16.8359H11.5819C12.5191 16.8433 13.4561 16.8107 14.3905 16.7383C15.4608 16.6523 16.5819 16.5078 17.7499 16.3008ZM18.6209 9.32421C18.6529 9.23787 18.7175 9.16747 18.8007 9.12804C18.8839 9.08862 18.9792 9.08329 19.0663 9.11321L19.1679 9.14841C22.4296 10.2578 23.6718 11.4804 22.8866 12.8125C22.121 14.1172 19.8944 15.0665 16.203 15.6602C16.121 15.6719 16.035 15.6562 15.9647 15.6132C15.7967 15.5156 15.7382 15.3047 15.8397 15.1367L15.9022 15.0313C16.4062 14.1875 16.8592 13.3477 17.2694 12.5078C17.746 11.5195 18.199 10.457 18.6209 9.32421ZM7.79693 8.33981C7.87893 8.32811 7.96493 8.34381 8.03523 8.38681C8.20323 8.48441 8.26173 8.69531 8.16023 8.86331L8.09773 8.96871C7.60677 9.79031 7.15063 10.6322 6.73053 11.4922C6.25393 12.4805 5.80083 13.543 5.37893 14.6758C5.34691 14.7621 5.28242 14.8325 5.19922 14.8719C5.11602 14.9114 5.02071 14.9167 4.93363 14.8868L4.83203 14.8516C1.57033 13.7422 0.328126 12.5196 1.11333 11.1875C1.87893 9.88281 4.10553 8.93351 7.79693 8.33981ZM13.0781 4.35551C15.6211 2.13281 17.2695 1.69151 18.0313 3.02351C18.7773 4.32811 18.5078 6.69531 17.2227 10.1328C17.1947 10.2088 17.1407 10.2724 17.0703 10.3125C16.9063 10.4063 16.6953 10.3477 16.6016 10.1797L16.5391 10.0742C16.0586 9.22271 15.5586 8.41411 15.0391 7.64841C14.4258 6.74611 13.7344 5.83201 12.9648 4.90631C12.9062 4.83669 12.8775 4.74677 12.8848 4.65607C12.8921 4.56538 12.9349 4.48124 13.0039 4.42191L13.0781 4.35551ZM7.28513 2.27351C8.76563 2.27351 10.6484 3.67581 12.9336 6.47651C12.9839 6.53838 13.0115 6.6156 13.0117 6.69531C13.0078 6.88671 12.8555 7.03911 12.6641 7.03911L12.5469 7.03511C11.6097 7.03091 10.6728 7.0648 9.73833 7.13671C8.66413 7.22271 7.54303 7.36721 6.37503 7.57421C6.28658 7.58929 6.19574 7.56912 6.12199 7.51801C6.04824 7.4669 5.99746 7.38893 5.98053 7.30081L5.96093 7.20311C5.33193 3.91801 5.77333 2.27351 7.28513 2.27351ZM10.1562 8.08591H13.8437C13.9552 8.08595 14.0647 8.11518 14.1613 8.17069C14.2579 8.2262 14.3383 8.30606 14.3945 8.40231L16.2422 11.6211C16.296 11.7172 16.3243 11.8255 16.3243 11.9356C16.3243 12.0457 16.296 12.1539 16.2422 12.25L14.3945 15.4727C14.3384 15.5689 14.258 15.6488 14.1613 15.7043C14.0647 15.7598 13.9553 15.7891 13.8438 15.7891H10.1563C9.92973 15.7891 9.71883 15.668 9.60933 15.4727L7.75783 12.25C7.70402 12.1539 7.67577 12.0456 7.67577 11.9355C7.67577 11.8254 7.70402 11.7171 7.75783 11.621L9.60943 8.40231C9.71873 8.20701 9.92973 8.08591 10.1562 8.08591ZM13.3867 8.87891C13.4982 8.87895 13.6077 8.90818 13.7043 8.96369C13.8009 9.0192 13.8813 9.09906 13.9375 9.19531L15.3281 11.6211C15.3819 11.7172 15.4102 11.8255 15.4102 11.9356C15.4102 12.0457 15.3819 12.1539 15.3281 12.25L13.9375 14.6797C13.8813 14.776 13.8009 14.8558 13.7043 14.9113C13.6077 14.9668 13.4982 14.9961 13.3867 14.9961H10.6133C10.3867 14.9961 10.1758 14.875 10.0664 14.6797L8.67193 12.25C8.61812 12.1539 8.58987 12.0456 8.58987 11.9355C8.58987 11.8254 8.61812 11.7171 8.67193 11.621L10.0664 9.19531C10.1758 9.00001 10.3867 8.87891 10.6133 8.87891H13.3867ZM12.8945 9.74611H11.1055C10.8789 9.74611 10.6719 9.86331 10.5585 10.0625L9.66023 11.6211C9.60644 11.7172 9.57819 11.8255 9.57819 11.9356C9.57819 12.0457 9.60644 12.1539 9.66023 12.25L10.5586 13.8125C10.614 13.9086 10.6937 13.9885 10.7897 14.044C10.8857 14.0995 10.9946 14.1288 11.1055 14.1289H12.8945C13.0055 14.1288 13.1144 14.0996 13.2104 14.044C13.3065 13.9885 13.3862 13.9086 13.4415 13.8125L14.3398 12.25C14.3936 12.1539 14.4219 12.0456 14.4219 11.9355C14.4219 11.8254 14.3936 11.7171 14.3398 11.621L13.4414 10.0625C13.3281 9.86331 13.1211 9.74611 12.8945 9.74611ZM12.418 10.5742C12.6445 10.5742 12.8555 10.6953 12.9648 10.8906L13.3868 11.6211C13.5 11.8164 13.5 12.0586 13.3868 12.25L12.9648 12.9844C12.8555 13.1797 12.6445 13.3008 12.418 13.3008H11.582C11.4711 13.3007 11.3622 13.2714 11.2662 13.2159C11.1702 13.1603 11.0906 13.0805 11.0352 12.9844L10.6132 12.25C10.5 12.0586 10.5 11.8164 10.6132 11.621L11.0352 10.8906C11.0906 10.7945 11.1702 10.7147 11.2662 10.6591C11.3622 10.6036 11.4711 10.5743 11.582 10.5742H12.418ZM12 11.3906C11.9042 11.3909 11.8101 11.4163 11.7272 11.4643C11.6442 11.5123 11.5753 11.5812 11.5273 11.6641C11.4297 11.8321 11.4297 12.0391 11.5273 12.2109C11.5755 12.2934 11.6446 12.3617 11.7276 12.409C11.8105 12.4563 11.9045 12.481 12 12.4805C12.0955 12.481 12.1895 12.4563 12.2725 12.409C12.3555 12.3617 12.4245 12.2934 12.4727 12.2109C12.5703 12.0391 12.5703 11.832 12.4727 11.6641C12.4247 11.5812 12.3558 11.5122 12.2728 11.4643C12.1899 11.4163 12.0959 11.3909 12 11.3906ZM7.57813 11.9375H8.55863ZM18.9804 7.75001C19.371 5.85551 19.4569 4.40621 19.203 3.35161C19.0546 2.72261 18.7812 2.21481 18.3632 1.84381C17.9218 1.45311 17.3632 1.26181 16.7382 1.26181C15.703 1.26181 14.6171 1.73441 13.4569 2.62891C12.9843 2.99221 12.4921 3.43361 11.9843 3.94531C11.9413 3.89451 11.8983 3.84381 11.8476 3.80081C10.4022 2.51561 9.18743 1.71881 8.14833 1.41021C7.53123 1.22661 6.95303 1.21091 6.42573 1.38671C5.86713 1.57421 5.42173 1.96091 5.10933 2.50391C4.59373 3.39841 4.45693 4.57811 4.64833 6.03131C4.72653 6.62111 4.86323 7.26561 5.05073 7.96481C4.97772 7.97338 4.90574 7.98912 4.83583 8.01181C3.00793 8.62101 1.71093 9.26941 0.925726 10.0155C0.460826 10.4569 0.156226 10.953 0.0429256 11.496C-0.0703744 12.0741 0.0429257 12.6522 0.355426 13.1952C0.871026 14.0897 1.82023 14.7929 3.17183 15.3515C3.71483 15.5741 4.32803 15.7772 5.01553 15.9608C4.98338 16.0334 4.95979 16.1094 4.94523 16.1874C4.55463 18.078 4.46873 19.5312 4.72263 20.5819C4.87103 21.2109 5.14833 21.7226 5.56243 22.0897C6.00383 22.4804 6.56243 22.6717 7.18743 22.6717C8.22263 22.6717 9.30843 22.1991 10.4687 21.3085C10.9452 20.9374 11.4413 20.4921 11.9569 19.9725C12.0123 20.0559 12.0779 20.132 12.1522 20.1991C13.5976 21.4843 14.8124 22.2811 15.8515 22.5897C16.4687 22.7733 17.0468 22.789 17.5741 22.6132C18.1327 22.4257 18.5781 22.039 18.8905 21.496C19.4062 20.6015 19.5429 19.4218 19.3515 17.9687C19.2695 17.3554 19.1288 16.6874 18.9257 15.9569C19.0065 15.9492 19.0863 15.9336 19.164 15.9101C20.992 15.3007 22.289 14.6523 23.0741 13.9061C23.539 13.4648 23.8437 12.9687 23.9569 12.4257C24.0702 11.8476 23.9569 11.2694 23.6444 10.7265C23.1288 9.83191 22.1796 9.12881 20.828 8.57021C20.2694 8.33981 19.6327 8.12881 18.9218 7.94521C18.949 7.88265 18.9687 7.81719 18.9804 7.75001Z" fill="#FF4154"/>
</svg>
