<svg width="24" height="24" viewBox="0 0 24 24" fill="none" xmlns="http://www.w3.org/2000/svg">
<path d="M14.23 12.004C14.23 12.5968 13.9946 13.1654 13.5754 13.5847C13.1563 14.004 12.5879 14.2397 11.995 14.24C11.402 14.24 10.8332 14.0044 10.4139 13.5851C9.99458 13.1658 9.759 12.597 9.759 12.004C9.759 11.4111 9.99444 10.8426 10.4136 10.4233C10.8327 10.004 11.4011 9.76826 11.994 9.76799C12.587 9.76799 13.1558 10.0036 13.5751 10.4229C13.9944 10.8422 14.23 11.411 14.23 12.004ZM16.878 1.314C15.532 1.314 13.771 2.274 11.99 3.936C10.21 2.283 8.448 1.334 7.103 1.334C6.693 1.334 6.32 1.427 5.997 1.612C4.622 2.405 4.314 4.876 5.024 7.977C1.98 8.917 0 10.42 0 12.004C0 13.594 1.99 15.101 5.043 16.034C4.339 19.147 4.653 21.622 6.031 22.414C6.351 22.601 6.721 22.689 7.133 22.689C8.478 22.689 10.24 21.729 12.021 20.065C13.801 21.719 15.563 22.668 16.908 22.668C17.318 22.668 17.691 22.578 18.014 22.393C19.388 21.601 19.697 19.13 18.987 16.028C22.02 15.096 24 13.59 24 12.004C24 10.414 22.01 8.907 18.957 7.972C19.661 4.862 19.347 2.385 17.969 1.592C17.651 1.408 17.282 1.315 16.878 1.314ZM16.873 2.404V2.41C17.098 2.41 17.279 2.454 17.431 2.537C18.097 2.919 18.386 4.372 18.161 6.241C18.107 6.701 18.019 7.186 17.911 7.681C16.951 7.445 15.905 7.264 14.804 7.147C14.144 6.242 13.459 5.42 12.769 4.7C14.361 3.22 15.856 2.408 16.874 2.405L16.873 2.404ZM7.103 2.424C8.115 2.424 9.617 3.232 11.213 4.704C10.527 5.424 9.843 6.241 9.193 7.146C8.086 7.263 7.039 7.444 6.08 7.684C5.968 7.194 5.885 6.72 5.826 6.264C5.596 4.396 5.88 2.944 6.54 2.557C6.73 2.467 6.94 2.429 7.103 2.424ZM11.985 5.474C12.44 5.942 12.895 6.466 13.345 7.038C12.905 7.018 12.455 7.004 12 7.004C11.54 7.004 11.085 7.014 10.64 7.038C11.08 6.466 11.535 5.943 11.985 5.474ZM12 8.1C12.74 8.1 13.477 8.134 14.202 8.193C14.608 8.775 15.004 9.396 15.385 10.053C15.757 10.693 16.095 11.343 16.403 11.999C16.095 12.654 15.757 13.309 15.39 13.949C15.01 14.609 14.617 15.237 14.21 15.819C13.482 15.882 12.744 15.917 12 15.917C11.26 15.917 10.523 15.882 9.798 15.824C9.392 15.242 8.996 14.62 8.615 13.964C8.243 13.324 7.905 12.674 7.597 12.018C7.9 11.361 8.243 10.705 8.61 10.064C8.99 9.404 9.383 8.778 9.79 8.196C10.518 8.132 11.256 8.09799 12 8.09799V8.1ZM8.365 8.354C8.125 8.731 7.885 9.117 7.661 9.514C7.436 9.904 7.226 10.296 7.026 10.688C6.761 10.032 6.536 9.378 6.35 8.741C6.99 8.591 7.665 8.457 8.365 8.354ZM15.625 8.354C16.32 8.457 16.99 8.584 17.631 8.741C17.451 9.373 17.226 10.023 16.971 10.674C16.771 10.284 16.561 9.891 16.331 9.5C16.106 9.108 15.866 8.726 15.626 8.354H15.625ZM18.688 9.029C19.172 9.179 19.632 9.346 20.063 9.527C21.795 10.267 22.915 11.235 22.915 12.003C22.91 12.771 21.79 13.743 20.058 14.478C19.638 14.658 19.178 14.82 18.703 14.971C18.423 14.013 18.057 13.015 17.603 11.991C18.053 10.974 18.413 9.981 18.688 9.027V9.029ZM5.293 9.033C5.571 9.993 5.938 10.99 6.393 12.013C5.943 13.03 5.581 14.023 5.307 14.977C4.823 14.827 4.363 14.659 3.937 14.477C2.205 13.74 1.085 12.771 1.085 12.003C1.085 11.235 2.205 10.261 3.937 9.527C4.357 9.347 4.817 9.185 5.293 9.033ZM16.971 13.313C17.236 13.97 17.461 14.625 17.647 15.261C17.007 15.418 16.331 15.551 15.631 15.651C15.871 15.276 16.111 14.889 16.336 14.493C16.561 14.103 16.77 13.705 16.971 13.313ZM7.026 13.333C7.226 13.725 7.436 14.116 7.666 14.508C7.896 14.898 8.131 15.28 8.371 15.651C7.676 15.549 7.006 15.421 6.365 15.265C6.545 14.635 6.771 13.983 7.025 13.332L7.026 13.333ZM17.92 16.32C18.032 16.813 18.12 17.288 18.174 17.743C18.404 19.611 18.12 21.063 17.46 21.451C17.313 21.541 17.122 21.579 16.897 21.579C15.885 21.579 14.383 20.772 12.787 19.299C13.473 18.579 14.157 17.763 14.807 16.859C15.914 16.741 16.961 16.56 17.92 16.32ZM6.09 16.33C7.05 16.564 8.096 16.745 9.197 16.862C9.857 17.767 10.542 18.589 11.232 19.308C9.637 20.791 8.14 21.603 7.122 21.603C6.902 21.598 6.716 21.553 6.569 21.471C5.903 21.091 5.614 19.637 5.839 17.768C5.893 17.308 5.982 16.824 6.09 16.33ZM10.65 16.97C11.09 16.99 11.54 17.004 11.995 17.004C12.455 17.004 12.91 16.994 13.355 16.97C12.915 17.542 12.46 18.065 12.01 18.535C11.555 18.065 11.1 17.542 10.65 16.97Z" fill="#61DAFB"/>
</svg>
