<svg width="24" height="24" viewBox="0 0 24 24" fill="none" xmlns="http://www.w3.org/2000/svg">
<g clip-path="url(#clip0_645_10)">
<path d="M16.634 16.504C17.504 16.429 18.177 15.664 18.134 14.75C18.087 13.836 17.338 13.102 16.425 13.102H16.364C15.9109 13.1182 15.4828 13.3136 15.1737 13.6453C14.8647 13.977 14.7001 14.4179 14.716 14.871C14.746 15.35 14.942 15.74 15.21 16.024C14.162 18.062 12.589 19.56 10.205 20.819C8.60199 21.657 6.90899 21.973 5.26099 21.749C3.88299 21.554 2.80499 20.939 2.14499 19.95C1.15699 18.451 1.06699 16.834 1.88999 15.216C2.48999 14.046 3.38899 13.193 3.98899 12.773C3.80786 12.2708 3.6674 11.7548 3.56899 11.23C-0.868014 14.408 -0.416014 18.752 0.931986 20.805C1.93599 22.303 3.98899 23.261 6.23599 23.261C6.83599 23.261 7.46599 23.217 8.07899 23.067C11.976 22.318 14.927 19.981 16.62 16.535L16.634 16.504ZM21.982 12.758C19.662 10.03 16.244 8.53199 12.348 8.53199H11.838C11.585 7.97799 11.001 7.633 10.34 7.633H10.295C9.35199 7.633 8.61699 8.44299 8.64799 9.38599C8.67799 10.284 9.44199 11.034 10.356 11.034H10.43C10.7542 11.0215 11.0679 10.9159 11.3337 10.7299C11.5995 10.5439 11.8062 10.2853 11.929 9.98499H12.484C14.793 9.98499 16.979 10.659 18.972 11.977C20.499 12.982 21.594 14.3 22.209 15.874C22.747 17.162 22.718 18.421 22.164 19.471C21.309 21.118 19.87 21.988 17.968 21.988C16.769 21.988 15.601 21.613 15.001 21.344C14.641 21.642 14.041 22.137 13.607 22.437C14.925 23.035 16.259 23.38 17.547 23.38C20.469 23.38 22.641 21.733 23.466 20.144C24.364 18.346 24.29 15.32 21.996 12.728L21.982 12.758ZM6.48999 17.042C6.51999 17.941 7.28299 18.69 8.19799 18.69H8.25799C8.48317 18.6849 8.70505 18.6348 8.91057 18.5427C9.11609 18.4505 9.30109 18.3181 9.45467 18.1534C9.60824 17.9886 9.72729 17.7948 9.8048 17.5833C9.88232 17.3718 9.91672 17.147 9.90599 16.922C9.90599 16.022 9.12699 15.275 8.21299 15.275H8.15299C8.09299 15.275 8.00299 15.275 7.92699 15.304C6.68399 13.206 6.15899 10.957 6.35499 8.53199C6.47499 6.70399 7.07499 5.115 8.15199 3.797C9.05199 2.673 10.745 2.117 11.899 2.089C15.135 2.028 16.484 6.06 16.588 7.663L18.086 8.113C17.741 3.197 14.686 0.619995 11.764 0.619995C9.01999 0.619995 6.48999 2.613 5.46999 5.535C4.07699 9.43 4.99099 13.177 6.69999 16.174C6.54999 16.369 6.45999 16.713 6.48999 17.042Z" fill="#764ABC"/>
</g>
<defs>
<clipPath id="clip0_645_10">
<rect width="24" height="24" fill="white"/>
</clipPath>
</defs>
</svg>
