<svg width="24" height="24" viewBox="0 0 24 24" fill="none" xmlns="http://www.w3.org/2000/svg">
<g clip-path="url(#clip0_645_14)">
<path d="M12 0C18.627 0 24 5.373 24 12C24 18.627 18.627 24 12 24C5.373 24 0 18.627 0 12C0 5.373 5.373 0 12 0ZM9.615 15.998C9.79 16.643 9.771 17.246 9.591 17.79L9.526 17.97C9.502 18.031 9.474 18.09 9.448 18.146C9.308 18.436 9.122 18.706 8.893 18.956C8.195 19.715 7.221 20.003 6.803 19.761C6.353 19.499 6.577 18.426 7.387 17.571C8.258 16.653 9.507 16.062 9.507 16.062V16.059L9.615 15.998ZM19.526 5.137C18.984 3.004 15.449 2.303 12.104 3.492C10.115 4.199 7.96 5.31 6.411 6.759C4.568 8.48 4.275 9.98 4.396 10.607C4.823 12.818 7.853 14.264 9.099 15.337V15.343C8.732 15.523 6.043 16.872 5.413 18.268C4.738 19.738 5.518 20.789 6.028 20.923C7.603 21.359 9.223 20.563 10.093 19.274C10.933 18.013 10.859 16.393 10.497 15.598C10.993 15.463 11.577 15.403 12.327 15.494C14.428 15.734 14.848 17.054 14.757 17.594C14.667 18.133 14.234 18.448 14.083 18.538C13.933 18.629 13.888 18.658 13.902 18.719C13.917 18.809 13.993 18.809 14.112 18.794C14.277 18.764 15.208 18.344 15.253 17.323C15.298 16.033 14.067 14.594 11.878 14.623C10.978 14.639 10.407 14.714 10.003 14.879C9.973 14.834 9.942 14.804 9.898 14.774C8.548 13.319 6.043 12.299 6.148 10.364C6.178 9.659 6.433 7.8 10.948 5.55C14.653 3.704 17.609 4.215 18.119 5.34C18.852 6.944 16.543 9.93 12.688 10.364C11.218 10.529 10.453 9.96 10.257 9.749C10.048 9.524 10.018 9.509 9.943 9.555C9.823 9.615 9.898 9.81 9.943 9.93C10.063 10.23 10.528 10.755 11.339 11.025C12.043 11.25 13.769 11.384 15.839 10.575C18.163 9.676 19.978 7.17 19.453 5.07L19.526 5.137Z" fill="#CC6699"/>
</g>
<defs>
<clipPath id="clip0_645_14">
<rect width="24" height="24" fill="white"/>
</clipPath>
</defs>
</svg>
