<svg width="24" height="24" viewBox="0 0 24 24" fill="none" xmlns="http://www.w3.org/2000/svg">
<g clip-path="url(#clip0_650_2)">
<path d="M23.1501 2.58699L18.2101 0.209993C17.9309 0.0755493 17.6168 0.0312384 17.3114 0.0831963C17.0059 0.135154 16.7241 0.28081 16.5051 0.499993L7.0451 9.12999L2.9251 6.00199C2.73922 5.86101 2.50986 5.78952 2.2768 5.79993C2.04374 5.81034 1.82167 5.90199 1.6491 6.05899L0.3271 7.26099C0.22408 7.35464 0.141751 7.46877 0.0853829 7.59608C0.0290149 7.72338 -0.000149778 7.86105 -0.000243912 8.00027C-0.000338046 8.1395 0.0286404 8.27721 0.0848363 8.40458C0.141032 8.53196 0.223207 8.6462 0.3261 8.73999L3.8991 12L0.3261 15.26C0.223207 15.3538 0.141032 15.468 0.0848363 15.5954C0.0286404 15.7228 -0.000338046 15.8605 -0.000243912 15.9997C-0.000149778 16.1389 0.0290149 16.2766 0.0853829 16.4039C0.141751 16.5312 0.22408 16.6453 0.3271 16.739L1.6501 17.94C1.82267 18.097 2.04474 18.1886 2.2778 18.1991C2.51086 18.2095 2.74022 18.138 2.9261 17.997L7.0461 14.869L16.5061 23.499C16.7249 23.7182 17.0065 23.8639 17.3118 23.9159C17.6172 23.9679 17.9311 23.9235 18.2101 23.789L23.1521 21.412C23.4064 21.2893 23.6208 21.0973 23.7708 20.8581C23.9208 20.619 24.0003 20.3423 24.0001 20.06V3.93899C24.0001 3.65646 23.9204 3.37966 23.77 3.14047C23.6196 2.90128 23.4047 2.70942 23.1501 2.58699ZM18.0041 17.448L10.8261 12L18.0041 6.55199V17.448Z" fill="#007ACC"/>
</g>
<defs>
<clipPath id="clip0_650_2">
<rect width="24" height="24" fill="white"/>
</clipPath>
</defs>
</svg>
