<svg width="24" height="24" viewBox="0 0 24 24" fill="none" xmlns="http://www.w3.org/2000/svg">
<g clip-path="url(#clip0_645_26)">
<path d="M8.28585 10.578L8.79785 1.92101C8.80192 1.85327 8.8284 1.78881 8.87311 1.73776C8.91782 1.68671 8.97824 1.65197 9.04485 1.63901L17.3768 0.0060098C17.4283 -0.00409551 17.4815 -0.000806838 17.5313 0.0155603C17.5811 0.0319274 17.6259 0.0608237 17.6614 0.0994764C17.6968 0.138129 17.7217 0.185241 17.7337 0.236292C17.7457 0.287343 17.7444 0.34062 17.7298 0.39101L16.1718 5.79401C16.1574 5.84431 16.1561 5.89747 16.168 5.94842C16.18 5.99936 16.2048 6.0464 16.2401 6.08502C16.2754 6.12364 16.32 6.15256 16.3697 6.16902C16.4194 6.18547 16.4725 6.18891 16.5238 6.17901L18.9118 5.71901C18.968 5.70802 19.0262 5.71302 19.0797 5.73343C19.1332 5.75384 19.1799 5.78885 19.2144 5.83448C19.249 5.8801 19.2701 5.93452 19.2753 5.99153C19.2805 6.04855 19.2696 6.10588 19.2438 6.15701L12.4538 19.707L12.3308 19.897C12.3044 19.94 12.2673 19.9755 12.2232 20C12.179 20.0245 12.1293 20.0373 12.0788 20.037C11.9018 20.037 11.7288 19.885 11.7738 19.668L12.8688 14.367C12.8796 14.3151 12.8767 14.2613 12.8604 14.2108C12.844 14.1604 12.8149 14.115 12.7758 14.0792C12.7366 14.0434 12.6889 14.0184 12.6372 14.0066C12.5855 13.9948 12.5316 13.9967 12.4808 14.012L11.0478 14.447C10.9971 14.4625 10.9432 14.4645 10.8915 14.4528C10.8397 14.4412 10.7919 14.4163 10.7527 14.3806C10.7135 14.3449 10.6842 14.2996 10.6677 14.2492C10.6513 14.1988 10.6482 14.145 10.6588 14.093L11.3488 10.718C11.3593 10.6676 11.3569 10.6154 11.3418 10.5662C11.3268 10.517 11.2995 10.4724 11.2626 10.4365C11.2257 10.4006 11.1804 10.3746 11.1308 10.3609C11.0812 10.3472 11.0289 10.3462 10.9788 10.358L8.65885 10.894C8.61255 10.9046 8.5644 10.9044 8.51823 10.8932C8.47206 10.882 8.42913 10.8602 8.39284 10.8295C8.35655 10.7989 8.3279 10.7602 8.30916 10.7165C8.29041 10.6729 8.28209 10.6254 8.28485 10.578H8.28585ZM23.2618 2.65201L17.2838 3.74001L16.7398 5.62701L18.8168 5.22701C18.9778 5.19492 19.1447 5.21312 19.295 5.27913C19.4453 5.34514 19.5716 5.45577 19.6568 5.59601C19.7292 5.71264 19.7703 5.84593 19.7763 5.98306C19.7823 6.12019 19.7528 6.25654 19.6908 6.37901L12.8998 19.93L12.8868 19.955L12.8718 19.978L12.7498 20.168C12.6777 20.281 12.5784 20.374 12.461 20.4387C12.3436 20.5033 12.2119 20.5375 12.0778 20.538C11.9565 20.5373 11.8367 20.5099 11.7272 20.4577C11.6176 20.4055 11.5208 20.3298 11.4438 20.236C11.369 20.1433 11.3157 20.035 11.288 19.9191C11.2604 19.8032 11.2589 19.6826 11.2838 19.566L12.3128 14.585L11.1928 14.925C11.0396 14.9712 10.8762 14.9709 10.7232 14.9243C10.5701 14.8776 10.4343 14.7867 10.3328 14.663C10.2572 14.5707 10.2032 14.4626 10.1746 14.3467C10.1461 14.2307 10.1438 14.1099 10.1678 13.993L10.7978 10.913L8.77085 11.381C8.63363 11.4124 8.49058 11.4075 8.35587 11.3666C8.22116 11.3257 8.09947 11.2504 8.00285 11.148C7.92794 11.0679 7.87008 10.9734 7.83278 10.8703C7.79548 10.7671 7.77951 10.6575 7.78585 10.548L8.17485 3.97801L0.734848 2.64801C0.620216 2.62732 0.502062 2.63978 0.394265 2.68392C0.286468 2.72805 0.193505 2.80204 0.126298 2.89718C0.0590915 2.99232 0.0204318 3.10466 0.0148607 3.22101C0.00928959 3.33736 0.0370386 3.45288 0.0948478 3.55401L11.5798 23.691C11.6335 23.7853 11.7112 23.8636 11.8051 23.9179C11.8989 23.9722 12.0056 24.0007 12.114 24.0003C12.2225 23.9999 12.3289 23.9706 12.4223 23.9156C12.5158 23.8605 12.5929 23.7817 12.6458 23.687L23.9058 3.55201C23.9623 3.4507 23.9888 3.33544 23.9822 3.21966C23.9757 3.10388 23.9364 2.99233 23.8689 2.89802C23.8014 2.80371 23.7085 2.73052 23.6011 2.68696C23.4936 2.64341 23.3759 2.63128 23.2618 2.65201Z" fill="#646CFF"/>
</g>
<defs>
<clipPath id="clip0_645_26">
<rect width="24" height="24" fill="white"/>
</clipPath>
</defs>
</svg>
